<svg width="20" height="20" viewBox="0 0 20 20" fill="none" xmlns="http://www.w3.org/2000/svg">
<path d="M9.99513 20C15.476 20 20 15.4739 20 10C20 4.52612 15.4663 0 9.98547 0C4.51425 0 0 4.52612 0 10C0 15.4739 4.52391 20 9.99513 20ZM8.91249 14.7776C8.54516 14.7776 8.24549 14.6228 7.97483 14.265L5.60654 11.3926C5.43255 11.1702 5.34556 10.9478 5.34556 10.706C5.34556 10.2031 5.74188 9.7969 6.24454 9.7969C6.54421 9.7969 6.77621 9.90328 7.02753 10.2224L8.88349 12.5725L12.8661 6.18955C13.0787 5.85106 13.3494 5.68666 13.6587 5.68666C14.1517 5.68666 14.5964 6.02514 14.5964 6.53771C14.5964 6.76016 14.4804 7.00194 14.345 7.2147L9.81147 14.265C9.59881 14.6035 9.2798 14.7776 8.91249 14.7776Z" fill="#4CABFF"/>
</svg>
