<svg width="14" height="14" viewBox="0 0 14 14" fill="none" xmlns="http://www.w3.org/2000/svg">
<path d="M0.277175 12.3384C-0.0867641 12.6956 -0.10025 13.3428 0.283911 13.7203C0.661336 14.091 1.30161 14.0843 1.65881 13.727L6.99662 8.3882L12.3345 13.7203C12.7051 14.091 13.3386 14.0977 13.7161 13.7135C14.0867 13.336 14.0935 12.7091 13.7229 12.3384L8.38499 6.99959L13.7229 1.6608C14.0935 1.29004 14.0935 0.656404 13.7161 0.285647C13.3319 -0.0918325 12.7051 -0.0918322 12.3345 0.27891L6.99662 5.61096L1.65881 0.272173C1.30161 -0.0850959 0.6546 -0.098583 0.283911 0.27891C-0.0935 0.663141 -0.0867641 1.29679 0.277175 1.6608L5.615 6.99959L0.277175 12.3384Z" fill="black"/>
</svg>
